PathFileType	4	(X/Y/Z)	/Users/itak/Documents/Research/Walk-IL/dataset/trc/00215_00009.trc
DataRate	CameraRate	NumFrames	NumMarkers	Units	OrigDataRate	OrigDataStartFrame	OrigNumFrames
100.000000	100.000000	4	53	mm	100.000000	297	595
Frame#	Time	RPSI			LPSI			L3			STRN			T10			C7			CLAV			RBAK			LBAK			LSHO			LUPA			LAEL			LAOL			LWTS			LWPS			LFRA			LIFD			LHPS			LHTS			RSHO			RUPA			RAEL			RAOL			RWTS			RWPS			RFRA			RIFD			RHTS			RHPS			RBHD			LFHD			RFHD			LBHD			LHIP			RHIP			RASI			LASI			LKNE			LTHI			LANK			LTIP			LTOE			LMT1			LMT5			LHEE			RKNE			RTHI			RANK			RTIP			RTOE			RMT1			RMT5			RHEE			
		X1	Y1	Z1	X2	Y2	Z2	X3	Y3	Z3	X4	Y4	Z4	X5	Y5	Z5	X6	Y6	Z6	X7	Y7	Z7	X8	Y8	Z8	X9	Y9	Z9	X10	Y10	Z10	X11	Y11	Z11	X12	Y12	Z12	X13	Y13	Z13	X14	Y14	Z14	X15	Y15	Z15	X16	Y16	Z16	X17	Y17	Z17	X18	Y18	Z18	X19	Y19	Z19	X20	Y20	Z20	X21	Y21	Z21	X22	Y22	Z22	X23	Y23	Z23	X24	Y24	Z24	X25	Y25	Z25	X26	Y26	Z26	X27	Y27	Z27	X28	Y28	Z28	X29	Y29	Z29	X30	Y30	Z30	X31	Y31	Z31	X32	Y32	Z32	X33	Y33	Z33	X34	Y34	Z34	X35	Y35	Z35	X36	Y36	Z36	X37	Y37	Z37	X38	Y38	Z38	X39	Y39	Z39	X40	Y40	Z40	X41	Y41	Z41	X42	Y42	Z42	X43	Y43	Z43	X44	Y44	Z44	X45	Y45	Z45	X46	Y46	Z46	X47	Y47	Z47	X48	Y48	Z48	X49	Y49	Z49	X50	Y50	Z50	X51	Y51	Z51	X52	Y52	Z52	X53	Y53	Z53	

298	2.97	80.55974578857422	1027.65869140625	-81.22486114501953	76.89988708496094	1039.552612304688	-200.2589416503906	78.35883331298828	1116.099365234375	-160.5722961425781	329.0960693359375	1305.6103515625	-178.5256652832031	76.77060699462891	1244.190185546875	-161.5651245117188	136.0042877197266	1505.115478515625	-175.3076019287109	301.1931762695312	1422.507202148438	-178.3826904296875	66.85843658447266	1368.0615234375	-96.87783813476562	108.6090316772461	1465.917114257812	-284.0039978027344	195.8937835693359	1467.703491210938	-339.3131713867188	180.9583892822266	1352.586303710938	-419.3766174316406	249.7106018066406	1154.9853515625	-452.0641174316406	180.9015808105469	1114.615112304688	-413.8337097167969	426.7242126464844	993.5234375	-365.4222106933594	423.6569519042969	963.083984375	-444.3943176269531	317.9633178710938	1068.079711914062	-455.457763671875	529.4552001953125	826.5401611328125	-355.7587280273438	480.3478393554688	894.9974365234375	-430.3063049316406	508.8262634277344	921.602783203125	-374.5089111328125	201.9207611083984	1470.165771484375	-8.443246841430664	183.5642700195312	1409.846069335938	61.66857147216797	141.2342071533203	1135.830078125	117.5782699584961	108.1293258666992	1126.11181640625	29.46006965637207	281.3533935546875	922.696044921875	83.21738433837891	226.8202819824219	906.9688720703125	145.6224670410156	168.3138122558594	1067.152221679688	133.6789703369141	304.9134521484375	730.2127685546875	83.46577453613281	325.5704650878906	804.2032470703125	103.6942977905273	271.3003540039062	802.3771362304688	151.1527709960938	175.5664825439453	1663.764282226562	-128.4938201904297	372.7400207519531	1708.855834960938	-232.4154815673828	376.1926574707031	1709.76806640625	-132.3085479736328	214.8774108886719	1669.479370117188	-262.8834838867188	167.3101196289062	981.8263549804688	-348.6127624511719	185.3758544921875	989.656982421875	17.90457344055176	276.8676452636719	1036.809936523438	-25.98515510559082	272.2330322265625	1022.309692382812	-307.1648559570312	212.0244598388672	497.4039001464844	-276.6597900390625	207.0266723632812	640.9318237304688	-313.7429504394531	90.23414611816406	33.34701538085938	-216.1701202392578	146.7535552978516	273.9276733398438	-256.2610168457031	308.2870788574219	39.87959671020508	-172.6124877929688	242.5673828125	36.51728057861328	-125.6382217407227	215.8540344238281	32.64225006103516	-240.7208862304688	32.50794982910156	44.16608428955078	-161.1173706054688	392.8411254882812	535.7913208007812	-11.14846706390381	300.153564453125	789.81591796875	24.64196586608887	236.4449920654297	64.29293823242188	-0.7547434568405151	391.7758483886719	416.1255493164062	-21.18163681030273	443.6948852539062	59.12450790405273	-34.35007476806641	391.0326843261719	54.68551254272461	-80.12387084960938	342.21142578125	51.1738166809082	29.33637046813965	176.6166687011719	71.88167572021484	-60.28395843505859	
299	2.98	88.39821624755859	1026.94873046875	-81.19585418701172	84.93548583984375	1038.943115234375	-200.1768798828125	86.02536773681641	1115.6953125	-160.5764617919922	337.3115844726562	1304.722045898438	-177.9257202148438	84.63440704345703	1243.851928710938	-161.9110870361328	144.7352142333984	1504.639282226562	-175.2231292724609	309.7388916015625	1421.702758789062	-177.7209625244141	74.93067169189453	1367.679443359375	-97.20806121826172	117.6884155273438	1465.609375	-284.0977172851562	205.185791015625	1467.3681640625	-338.9934692382812	190.6526336669922	1352.52783203125	-419.4101257324219	260.0973510742188	1155.29345703125	-452.1922607421875	191.4284210205078	1114.383666992188	-414.3477478027344	438.67041015625	996.6408081054688	-364.1104736328125	436.4356689453125	965.7410278320312	-442.9466857910156	329.31640625	1069.204711914062	-455.0404357910156	543.8073120117188	831.2240600585938	-353.1677856445312	494.0077514648438	898.6271362304688	-428.2947387695312	521.90869140625	925.8890380859375	-372.4986267089844	209.9346923828125	1469.399536132812	-8.154532432556152	191.0808258056641	1408.967651367188	61.71224594116211	147.9966278076172	1135.107055664062	117.3212814331055	115.2584381103516	1125.47900390625	29.03935432434082	288.1398315429688	921.9674682617188	83.10279083251953	233.4353942871094	906.1788330078125	145.3224029541016	174.9858856201172	1066.373779296875	133.4545440673828	311.6756286621094	729.474365234375	83.14665985107422	332.2930603027344	803.4632568359375	103.5727310180664	277.8304443359375	801.5435180664062	150.818359375	184.5208740234375	1663.048095703125	-127.7900772094727	381.7872314453125	1708.102294921875	-231.6602935791016	385.1911926269531	1708.887329101562	-131.5282897949219	223.8842010498047	1668.872436523438	-262.1849975585938	175.3226165771484	981.308837890625	-348.5802001953125	193.4795989990234	989.1069946289062	17.96420478820801	284.7701416015625	1036.1708984375	-25.90238380432129	280.2445983886719	1021.765563964844	-307.0822143554688	214.19677734375	496.8934631347656	-276.7314453125	211.2328948974609	640.5118408203125	-313.7040405273438	90.28505706787109	33.4822883605957	-216.0460510253906	147.5767517089844	273.9481201171875	-256.2303466796875	308.3359680175781	39.82376480102539	-172.5769348144531	242.5713958740234	36.45806503295898	-125.622428894043	215.8525085449219	32.64503479003906	-240.7322692871094	32.48766708374023	44.44615173339844	-161.0612335205078	404.3983764648438	537.4133911132812	-11.75976181030273	308.8517761230469	790.0633544921875	24.53684043884277	268.8606872558594	59.07234573364258	-2.386362552642822	407.7388610839844	417.4758911132812	-22.0429801940918	475.992919921875	61.76014709472656	-37.49629592895508	423.2137756347656	55.65318298339844	-82.87267303466797	375.4586486816406	50.30201721191406	26.64430046081543	208.3012237548828	64.47185516357422	-61.50174713134766	
300	2.99	96.33611297607422	1026.135375976562	-81.18417358398438	93.00874328613281	1038.253173828125	-200.1294403076172	93.74639892578125	1115.225219726562	-160.5791473388672	345.5718994140625	1303.765502929688	-177.2812194824219	92.53551483154297	1243.424926757812	-162.1843872070312	153.4776458740234	1504.070068359375	-175.0792694091797	318.3099670410156	1420.825317382812	-177.0235290527344	83.04880523681641	1367.20947265625	-97.45908355712891	126.7837905883789	1465.202392578125	-284.1170349121094	214.4712066650391	1466.929931640625	-338.626953125	200.2960510253906	1352.337524414062	-419.3651123046875	270.3410034179688	1155.43212890625	-452.2436218261719	201.7969818115234	1114.029174804688	-414.7757568359375	450.30029296875	999.4907836914062	-362.7071228027344	448.9003601074219	968.14892578125	-441.3992614746094	340.4462890625	1070.141357421875	-454.5329284667969	557.6776123046875	835.6211547851562	-350.4395446777344	507.2840270996094	901.9934692382812	-426.1679382324219	534.6104125976562	929.8887329101562	-370.3912353515625	218.0037689208984	1468.560302734375	-7.819710731506348	198.6605377197266	1408.014282226562	61.79745101928711	154.8972778320312	1134.31494140625	117.1480560302734	122.3881607055664	1124.806640625	28.72093391418457	294.8678894042969	921.0779418945312	82.85406494140625	240.093505859375	905.26904296875	144.9730987548828	181.7631683349609	1065.5107421875	133.27099609375	318.1732482910156	728.5454711914062	82.59659576416016	338.8783874511719	802.5098876953125	103.2164306640625	284.294677734375	800.5400390625	150.3309936523438	193.4948272705078	1662.261840820312	-127.0534210205078	390.85205078125	1707.254150390625	-230.8375549316406	394.21484375	1707.911499023438	-130.6959075927734	232.9240264892578	1668.185546875	-261.4443664550781	183.5307006835938	980.7425537109375	-348.5057067871094	201.67529296875	988.4254760742188	18.04240989685059	292.7218627929688	1035.428344726562	-25.77697372436523	288.3867797851562	1021.150634765625	-306.9346008300781	216.4410247802734	496.3934631347656	-276.7717895507812	215.5090637207031	640.0496826171875	-313.7060546875	90.33346557617188	33.62274169921875	-215.9163665771484	148.4015197753906	273.9777221679688	-256.2198486328125	308.3929443359375	39.7723388671875	-172.5508575439453	242.6668090820312	36.55088806152344	-125.7083435058594	215.8512573242188	32.64550018310547	-240.7527465820312	32.49297332763672	44.75786972045898	-161.0094451904297	415.51953125	538.7339477539062	-12.16636848449707	317.3422546386719	790.0792236328125	24.46711921691895	301.0386352539062	54.52558517456055	-4.513039588928223	423.300048828125	418.7006530761719	-22.86095428466797	507.7315368652344	64.64397430419922	-41.32418441772461	454.8228454589844	57.00690460205078	-86.24510955810547	408.3526306152344	49.80485153198242	23.36932373046875	239.8238067626953	57.91489028930664	-63.11602020263672	
301	3	104.3898696899414	1025.22265625	-81.18919372558594	101.1404495239258	1037.484741210938	-200.1046142578125	101.5373229980469	1114.681396484375	-160.5921630859375	353.8927612304688	1302.743408203125	-176.5908203125	100.50830078125	1242.905151367188	-162.365478515625	162.2325592041016	1503.405151367188	-174.8763275146484	326.9114379882812	1419.876831054688	-176.291748046875	91.22088623046875	1366.643676757812	-97.63497924804688	135.8926086425781	1464.694702148438	-284.0641784667969	223.7521667480469	1466.386840820312	-338.2139587402344	209.8937530517578	1352.01220703125	-419.2369689941406	280.4593505859375	1155.406494140625	-452.2235107421875	212.0136871337891	1113.55224609375	-415.1233215332031	461.6217041015625	1002.054992675781	-361.2095947265625	461.068603515625	970.3037719726562	-439.7532958984375	351.3678894042969	1070.88525390625	-453.9363708496094	571.0482177734375	839.693115234375	-347.5762939453125	520.190673828125	905.0759887695312	-423.9303894042969	546.93359375	933.5714111328125	-368.1745910644531	226.1222839355469	1467.644165039062	-7.439356803894043	206.3132781982422	1406.98779296875	61.93302154541016	161.9248504638672	1133.450439453125	117.0593109130859	129.529052734375	1124.09130859375	28.49518966674805	301.5431823730469	920.0303344726562	82.49346923828125	246.7938079833984	904.236083984375	144.5869598388672	188.6367645263672	1064.560180664062	133.1310272216797	324.4356384277344	727.4374389648438	81.83394622802734	345.3368225097656	801.3460083007812	102.6459350585938	290.7100219726562	799.3717651367188	149.7141418457031	202.4882507324219	1661.408447265625	-126.2856750488281	399.9353637695312	1706.312255859375	-229.9480133056641	403.2629699707031	1706.840942382812	-129.8115386962891	241.9945526123047	1667.423706054688	-260.6624755859375	191.8823394775391	980.126953125	-348.4118041992188	209.941162109375	987.6102294921875	18.11746215820312	300.7522888183594	1034.576293945312	-25.62047958374023	296.6620483398438	1020.461120605469	-306.7364196777344	218.7841186523438	495.9036560058594	-276.787109375	219.8586120605469	639.5416870117188	-313.7545471191406	90.37879180908203	33.76826477050781	-215.7765197753906	149.2492828369141	274.0146179199219	-256.2300720214844	308.4555053710938	39.72397613525391	-172.5341033935547	242.8149719238281	36.73333740234375	-125.8553771972656	215.8479461669922	32.64422988891602	-240.7820281982422	32.52318954467773	45.10574340820312	-160.9514770507812	426.2149658203125	539.7279052734375	-12.36338520050049	325.6616516113281	789.8761596679688	24.44866752624512	332.9114379882812	50.634765625	-7.110767841339111	438.4269104003906	419.7786560058594	-23.62663459777832	538.868896484375	67.82393646240234	-45.75888824462891	485.8262634277344	58.77095031738281	-90.19331359863281	440.7929992675781	49.62803649902344	19.57924270629883	271.1031799316406	52.19010543823242	-65.14910888671875	
